{
	"asset":{
		"generator":"Khronos glTF Blender I/O v4.1.63",
		"version":"2.0"
	},
	"scene":0,
	"scenes":[
		{
			"name":"Scene",
			"nodes":[
				18
			]
		}
	],
	"nodes":[
		{
			"mesh":0,
			"name":"Sphere.001",
			"scale":[
				0.7882380485534668,
				0.7882380485534668,
				0.7882380485534668
			],
			"translation":[
				1.5997816324234009,
				-3.7478678226470947,
				-1.8887958526611328
			]
		},
		{
			"mesh":1,
			"name":"Sphere.002",
			"scale":[
				1.3567975759506226,
				1.3567975759506226,
				1.3567975759506226
			],
			"translation":[
				-1.1931029558181763,
				-3.0712292194366455,
				3.6000258922576904
			]
		},
		{
			"mesh":2,
			"name":"Sphere.003",
			"scale":[
				1.5643774271011353,
				1.5643774271011353,
				1.5643774271011353
			],
			"translation":[
				2.2877326011657715,
				2.6907272338867188,
				-0.6013579964637756
			]
		},
		{
			"mesh":3,
			"name":"Sphere.005",
			"scale":[
				1.5708539485931396,
				1.5708539485931396,
				1.5708539485931396
			],
			"translation":[
				0.11295068264007568,
				-3.357767343521118,
				0.996420681476593
			]
		},
		{
			"mesh":4,
			"name":"Sphere.006",
			"scale":[
				1.276464819908142,
				1.276464819908142,
				1.276464819908142
			],
			"translation":[
				4.920851230621338,
				1.1400680541992188,
				0.8927414417266846
			]
		},
		{
			"mesh":5,
			"name":"Sphere.007",
			"scale":[
				1.0578500032424927,
				1.0578500032424927,
				1.0578500032424927
			],
			"translation":[
				2.9681901931762695,
				0.797217845916748,
				2.797034502029419
			]
		},
		{
			"mesh":6,
			"name":"Sphere.008",
			"scale":[
				1.0941575765609741,
				1.0941575765609741,
				1.0941575765609741
			],
			"translation":[
				-2.954502582550049,
				0.7544078826904297,
				0.11205238103866577
			]
		},
		{
			"mesh":7,
			"name":"Sphere.009",
			"scale":[
				1.0837253332138062,
				1.0837253332138062,
				1.0837253332138062
			],
			"translation":[
				2.289567470550537,
				-2.394268035888672,
				1.5972713232040405
			]
		},
		{
			"mesh":8,
			"name":"Sphere.010",
			"scale":[
				0.9963576197624207,
				0.9963576197624207,
				0.9963576197624207
			],
			"translation":[
				-1.5267282724380493,
				0.7261204719543457,
				4.352396011352539
			]
		},
		{
			"mesh":9,
			"name":"Sphere.011",
			"scale":[
				0.9979822039604187,
				0.9979822039604187,
				0.9979822039604187
			],
			"translation":[
				-2.3805665969848633,
				-3.1366324424743652,
				0.2032642364501953
			]
		},
		{
			"mesh":10,
			"name":"Sphere.012",
			"scale":[
				2.2888195514678955,
				2.2888195514678955,
				2.2888195514678955
			],
			"translation":[
				-0.8733471632003784,
				4.020962715148926,
				1.8260390758514404
			]
		},
		{
			"mesh":11,
			"name":"Sphere.013",
			"scale":[
				0.9121338725090027,
				0.9121338725090027,
				0.9121338725090027
			],
			"translation":[
				5.306135654449463,
				-0.8005433082580566,
				-1.517038345336914
			]
		},
		{
			"mesh":12,
			"name":"Sphere.014",
			"scale":[
				1.3567975759506226,
				1.3567975759506226,
				1.3567975759506226
			],
			"translation":[
				4.87992525100708,
				-2.06282901763916,
				0.718088686466217
			]
		},
		{
			"mesh":13,
			"name":"Sphere.015",
			"scale":[
				1.556033968925476,
				1.556033968925476,
				1.556033968925476
			],
			"translation":[
				-1.3863617181777954,
				-0.47295713424682617,
				-2.0954363346099854
			]
		},
		{
			"mesh":14,
			"name":"Sphere.016",
			"scale":[
				1.3567975759506226,
				1.3567975759506226,
				1.3567975759506226
			],
			"translation":[
				4.708021640777588,
				-1.1337170600891113,
				3.66804838180542
			]
		},
		{
			"mesh":15,
			"name":"Sphere.017",
			"scale":[
				1.3567975759506226,
				1.3567975759506226,
				1.3567975759506226
			],
			"translation":[
				2.4461452960968018,
				-0.1670398712158203,
				5.9623894691467285
			]
		},
		{
			"mesh":16,
			"name":"Sphere.018",
			"scale":[
				1.2600691318511963,
				1.2600691318511963,
				1.2600691318511963
			],
			"translation":[
				0.9209843277931213,
				-1.8942251205444336,
				3.5482895374298096
			]
		},
		{
			"mesh":17,
			"name":"Sphere.019",
			"scale":[
				1.240545630455017,
				1.240545630455017,
				1.240545630455017
			],
			"translation":[
				2.467442274093628,
				1.2279810905456543,
				-3.38067889213562
			]
		},
		{
			"children":[
				0,
				1,
				2,
				3,
				4,
				5,
				6,
				7,
				8,
				9,
				10,
				11,
				12,
				13,
				14,
				15,
				16,
				17
			],
			"mesh":18,
			"name":"Sphere",
			"scale":[
				0.0843738541007042,
				0.0843738541007042,
				0.0843738541007042
			],
			"translation":[
				-0.14348292350769043,
				0.525970995426178,
				-0.06574180722236633
			]
		}
	],
	"meshes":[
		{
			"name":"Sphere.001",
			"primitives":[
				{
					"attributes":{
						"POSITION":0,
						"NORMAL":1,
						"TEXCOORD_0":2
					},
					"indices":3
				}
			]
		},
		{
			"name":"Sphere.002",
			"primitives":[
				{
					"attributes":{
						"POSITION":4,
						"NORMAL":5,
						"TEXCOORD_0":6
					},
					"indices":3
				}
			]
		},
		{
			"name":"Sphere.003",
			"primitives":[
				{
					"attributes":{
						"POSITION":7,
						"NORMAL":8,
						"TEXCOORD_0":9
					},
					"indices":3
				}
			]
		},
		{
			"name":"Sphere.005",
			"primitives":[
				{
					"attributes":{
						"POSITION":10,
						"NORMAL":11,
						"TEXCOORD_0":12
					},
					"indices":3
				}
			]
		},
		{
			"name":"Sphere.006",
			"primitives":[
				{
					"attributes":{
						"POSITION":13,
						"NORMAL":14,
						"TEXCOORD_0":15
					},
					"indices":3
				}
			]
		},
		{
			"name":"Sphere.007",
			"primitives":[
				{
					"attributes":{
						"POSITION":16,
						"NORMAL":17,
						"TEXCOORD_0":18
					},
					"indices":3
				}
			]
		},
		{
			"name":"Sphere.022",
			"primitives":[
				{
					"attributes":{
						"POSITION":19,
						"NORMAL":20,
						"TEXCOORD_0":21
					},
					"indices":3
				}
			]
		},
		{
			"name":"Sphere.009",
			"primitives":[
				{
					"attributes":{
						"POSITION":22,
						"NORMAL":23,
						"TEXCOORD_0":24
					},
					"indices":3
				}
			]
		},
		{
			"name":"Sphere.010",
			"primitives":[
				{
					"attributes":{
						"POSITION":25,
						"NORMAL":26,
						"TEXCOORD_0":27
					},
					"indices":3
				}
			]
		},
		{
			"name":"Sphere.011",
			"primitives":[
				{
					"attributes":{
						"POSITION":28,
						"NORMAL":29,
						"TEXCOORD_0":30
					},
					"indices":3
				}
			]
		},
		{
			"name":"Sphere.012",
			"primitives":[
				{
					"attributes":{
						"POSITION":31,
						"NORMAL":32,
						"TEXCOORD_0":33
					},
					"indices":3
				}
			]
		},
		{
			"name":"Sphere.013",
			"primitives":[
				{
					"attributes":{
						"POSITION":34,
						"NORMAL":35,
						"TEXCOORD_0":36
					},
					"indices":3
				}
			]
		},
		{
			"name":"Sphere.014",
			"primitives":[
				{
					"attributes":{
						"POSITION":37,
						"NORMAL":38,
						"TEXCOORD_0":39
					},
					"indices":3
				}
			]
		},
		{
			"name":"Sphere.015",
			"primitives":[
				{
					"attributes":{
						"POSITION":40,
						"NORMAL":41,
						"TEXCOORD_0":42
					},
					"indices":3
				}
			]
		},
		{
			"name":"Sphere.016",
			"primitives":[
				{
					"attributes":{
						"POSITION":43,
						"NORMAL":44,
						"TEXCOORD_0":45
					},
					"indices":3
				}
			]
		},
		{
			"name":"Sphere.017",
			"primitives":[
				{
					"attributes":{
						"POSITION":46,
						"NORMAL":47,
						"TEXCOORD_0":48
					},
					"indices":3
				}
			]
		},
		{
			"name":"Sphere.020",
			"primitives":[
				{
					"attributes":{
						"POSITION":49,
						"NORMAL":50,
						"TEXCOORD_0":51
					},
					"indices":3
				}
			]
		},
		{
			"name":"Sphere.021",
			"primitives":[
				{
					"attributes":{
						"POSITION":52,
						"NORMAL":53,
						"TEXCOORD_0":54
					},
					"indices":3
				}
			]
		},
		{
			"name":"Sphere",
			"primitives":[
				{
					"attributes":{
						"POSITION":55,
						"NORMAL":56,
						"TEXCOORD_0":57
					},
					"indices":3
				}
			]
		}
	],
	"accessors":[
		{
			"bufferView":0,
			"componentType":5126,
			"count":31744,
			"max":[
				0.9872310161590576,
				0.9975767135620117,
				0.9872307181358337
			],
			"min":[
				-0.9872305393218994,
				-0.9975767135620117,
				-0.9872310161590576
			],
			"type":"VEC3"
		},
		{
			"bufferView":1,
			"componentType":5126,
			"count":31744,
			"type":"VEC3"
		},
		{
			"bufferView":2,
			"componentType":5126,
			"count":31744,
			"type":"VEC2"
		},
		{
			"bufferView":3,
			"componentType":5123,
			"count":47616,
			"type":"SCALAR"
		},
		{
			"bufferView":4,
			"componentType":5126,
			"count":31744,
			"max":[
				0.9872310161590576,
				0.9975767135620117,
				0.9872307181358337
			],
			"min":[
				-0.9872305393218994,
				-0.9975767135620117,
				-0.9872310161590576
			],
			"type":"VEC3"
		},
		{
			"bufferView":5,
			"componentType":5126,
			"count":31744,
			"type":"VEC3"
		},
		{
			"bufferView":6,
			"componentType":5126,
			"count":31744,
			"type":"VEC2"
		},
		{
			"bufferView":7,
			"componentType":5126,
			"count":31744,
			"max":[
				0.9872310161590576,
				0.9975767135620117,
				0.9872307181358337
			],
			"min":[
				-0.9872305393218994,
				-0.9975767135620117,
				-0.9872310161590576
			],
			"type":"VEC3"
		},
		{
			"bufferView":8,
			"componentType":5126,
			"count":31744,
			"type":"VEC3"
		},
		{
			"bufferView":9,
			"componentType":5126,
			"count":31744,
			"type":"VEC2"
		},
		{
			"bufferView":10,
			"componentType":5126,
			"count":31744,
			"max":[
				0.9872310161590576,
				0.9975767135620117,
				0.9872307181358337
			],
			"min":[
				-0.9872305393218994,
				-0.9975767135620117,
				-0.9872310161590576
			],
			"type":"VEC3"
		},
		{
			"bufferView":11,
			"componentType":5126,
			"count":31744,
			"type":"VEC3"
		},
		{
			"bufferView":12,
			"componentType":5126,
			"count":31744,
			"type":"VEC2"
		},
		{
			"bufferView":13,
			"componentType":5126,
			"count":31744,
			"max":[
				0.9872310161590576,
				0.9975767135620117,
				0.9872307181358337
			],
			"min":[
				-0.9872305393218994,
				-0.9975767135620117,
				-0.9872310161590576
			],
			"type":"VEC3"
		},
		{
			"bufferView":14,
			"componentType":5126,
			"count":31744,
			"type":"VEC3"
		},
		{
			"bufferView":15,
			"componentType":5126,
			"count":31744,
			"type":"VEC2"
		},
		{
			"bufferView":16,
			"componentType":5126,
			"count":31744,
			"max":[
				0.9872310161590576,
				0.9975767135620117,
				0.9872307181358337
			],
			"min":[
				-0.9872305393218994,
				-0.9975767135620117,
				-0.9872310161590576
			],
			"type":"VEC3"
		},
		{
			"bufferView":17,
			"componentType":5126,
			"count":31744,
			"type":"VEC3"
		},
		{
			"bufferView":18,
			"componentType":5126,
			"count":31744,
			"type":"VEC2"
		},
		{
			"bufferView":19,
			"componentType":5126,
			"count":31744,
			"max":[
				0.9872310161590576,
				0.9975767135620117,
				0.9872307181358337
			],
			"min":[
				-0.9872305393218994,
				-0.9975767135620117,
				-0.9872310161590576
			],
			"type":"VEC3"
		},
		{
			"bufferView":20,
			"componentType":5126,
			"count":31744,
			"type":"VEC3"
		},
		{
			"bufferView":21,
			"componentType":5126,
			"count":31744,
			"type":"VEC2"
		},
		{
			"bufferView":22,
			"componentType":5126,
			"count":31744,
			"max":[
				0.9872310161590576,
				0.9975767135620117,
				0.9872307181358337
			],
			"min":[
				-0.9872305393218994,
				-0.9975767135620117,
				-0.9872310161590576
			],
			"type":"VEC3"
		},
		{
			"bufferView":23,
			"componentType":5126,
			"count":31744,
			"type":"VEC3"
		},
		{
			"bufferView":24,
			"componentType":5126,
			"count":31744,
			"type":"VEC2"
		},
		{
			"bufferView":25,
			"componentType":5126,
			"count":31744,
			"max":[
				0.9872310161590576,
				0.9975767135620117,
				0.9872307181358337
			],
			"min":[
				-0.9872305393218994,
				-0.9975767135620117,
				-0.9872310161590576
			],
			"type":"VEC3"
		},
		{
			"bufferView":26,
			"componentType":5126,
			"count":31744,
			"type":"VEC3"
		},
		{
			"bufferView":27,
			"componentType":5126,
			"count":31744,
			"type":"VEC2"
		},
		{
			"bufferView":28,
			"componentType":5126,
			"count":31744,
			"max":[
				0.9872310161590576,
				0.9975767135620117,
				0.9872307181358337
			],
			"min":[
				-0.9872305393218994,
				-0.9975767135620117,
				-0.9872310161590576
			],
			"type":"VEC3"
		},
		{
			"bufferView":29,
			"componentType":5126,
			"count":31744,
			"type":"VEC3"
		},
		{
			"bufferView":30,
			"componentType":5126,
			"count":31744,
			"type":"VEC2"
		},
		{
			"bufferView":31,
			"componentType":5126,
			"count":31744,
			"max":[
				0.9872310161590576,
				0.9975767135620117,
				0.9872307181358337
			],
			"min":[
				-0.9872305393218994,
				-0.9975767135620117,
				-0.9872310161590576
			],
			"type":"VEC3"
		},
		{
			"bufferView":32,
			"componentType":5126,
			"count":31744,
			"type":"VEC3"
		},
		{
			"bufferView":33,
			"componentType":5126,
			"count":31744,
			"type":"VEC2"
		},
		{
			"bufferView":34,
			"componentType":5126,
			"count":31744,
			"max":[
				0.9872310161590576,
				0.9975767135620117,
				0.9872307181358337
			],
			"min":[
				-0.9872305393218994,
				-0.9975767135620117,
				-0.9872310161590576
			],
			"type":"VEC3"
		},
		{
			"bufferView":35,
			"componentType":5126,
			"count":31744,
			"type":"VEC3"
		},
		{
			"bufferView":36,
			"componentType":5126,
			"count":31744,
			"type":"VEC2"
		},
		{
			"bufferView":37,
			"componentType":5126,
			"count":31744,
			"max":[
				0.9872310161590576,
				0.9975767135620117,
				0.9872307181358337
			],
			"min":[
				-0.9872305393218994,
				-0.9975767135620117,
				-0.9872310161590576
			],
			"type":"VEC3"
		},
		{
			"bufferView":38,
			"componentType":5126,
			"count":31744,
			"type":"VEC3"
		},
		{
			"bufferView":39,
			"componentType":5126,
			"count":31744,
			"type":"VEC2"
		},
		{
			"bufferView":40,
			"componentType":5126,
			"count":31744,
			"max":[
				0.9872310161590576,
				0.9975767135620117,
				0.9872307181358337
			],
			"min":[
				-0.9872305393218994,
				-0.9975767135620117,
				-0.9872310161590576
			],
			"type":"VEC3"
		},
		{
			"bufferView":41,
			"componentType":5126,
			"count":31744,
			"type":"VEC3"
		},
		{
			"bufferView":42,
			"componentType":5126,
			"count":31744,
			"type":"VEC2"
		},
		{
			"bufferView":43,
			"componentType":5126,
			"count":31744,
			"max":[
				0.9872310161590576,
				0.9975767135620117,
				0.9872307181358337
			],
			"min":[
				-0.9872305393218994,
				-0.9975767135620117,
				-0.9872310161590576
			],
			"type":"VEC3"
		},
		{
			"bufferView":44,
			"componentType":5126,
			"count":31744,
			"type":"VEC3"
		},
		{
			"bufferView":45,
			"componentType":5126,
			"count":31744,
			"type":"VEC2"
		},
		{
			"bufferView":46,
			"componentType":5126,
			"count":31744,
			"max":[
				0.9872310161590576,
				0.9975767135620117,
				0.9872307181358337
			],
			"min":[
				-0.9872305393218994,
				-0.9975767135620117,
				-0.9872310161590576
			],
			"type":"VEC3"
		},
		{
			"bufferView":47,
			"componentType":5126,
			"count":31744,
			"type":"VEC3"
		},
		{
			"bufferView":48,
			"componentType":5126,
			"count":31744,
			"type":"VEC2"
		},
		{
			"bufferView":49,
			"componentType":5126,
			"count":31744,
			"max":[
				0.9872310161590576,
				0.9975767135620117,
				0.9872307181358337
			],
			"min":[
				-0.9872305393218994,
				-0.9975767135620117,
				-0.9872310161590576
			],
			"type":"VEC3"
		},
		{
			"bufferView":50,
			"componentType":5126,
			"count":31744,
			"type":"VEC3"
		},
		{
			"bufferView":51,
			"componentType":5126,
			"count":31744,
			"type":"VEC2"
		},
		{
			"bufferView":52,
			"componentType":5126,
			"count":31744,
			"max":[
				0.9872310161590576,
				0.9975767135620117,
				0.9872307181358337
			],
			"min":[
				-0.9872305393218994,
				-0.9975767135620117,
				-0.9872310161590576
			],
			"type":"VEC3"
		},
		{
			"bufferView":53,
			"componentType":5126,
			"count":31744,
			"type":"VEC3"
		},
		{
			"bufferView":54,
			"componentType":5126,
			"count":31744,
			"type":"VEC2"
		},
		{
			"bufferView":55,
			"componentType":5126,
			"count":31744,
			"max":[
				0.9872310161590576,
				0.9975767135620117,
				0.9872307181358337
			],
			"min":[
				-0.9872305393218994,
				-0.9975767135620117,
				-0.9872310161590576
			],
			"type":"VEC3"
		},
		{
			"bufferView":56,
			"componentType":5126,
			"count":31744,
			"type":"VEC3"
		},
		{
			"bufferView":57,
			"componentType":5126,
			"count":31744,
			"type":"VEC2"
		}
	],
	"bufferViews":[
		{
			"buffer":0,
			"byteLength":380928,
			"byteOffset":0,
			"target":34962
		},
		{
			"buffer":0,
			"byteLength":380928,
			"byteOffset":380928,
			"target":34962
		},
		{
			"buffer":0,
			"byteLength":253952,
			"byteOffset":761856,
			"target":34962
		},
		{
			"buffer":0,
			"byteLength":95232,
			"byteOffset":1015808,
			"target":34963
		},
		{
			"buffer":0,
			"byteLength":380928,
			"byteOffset":1111040,
			"target":34962
		},
		{
			"buffer":0,
			"byteLength":380928,
			"byteOffset":1491968,
			"target":34962
		},
		{
			"buffer":0,
			"byteLength":253952,
			"byteOffset":1872896,
			"target":34962
		},
		{
			"buffer":0,
			"byteLength":380928,
			"byteOffset":2126848,
			"target":34962
		},
		{
			"buffer":0,
			"byteLength":380928,
			"byteOffset":2507776,
			"target":34962
		},
		{
			"buffer":0,
			"byteLength":253952,
			"byteOffset":2888704,
			"target":34962
		},
		{
			"buffer":0,
			"byteLength":380928,
			"byteOffset":3142656,
			"target":34962
		},
		{
			"buffer":0,
			"byteLength":380928,
			"byteOffset":3523584,
			"target":34962
		},
		{
			"buffer":0,
			"byteLength":253952,
			"byteOffset":3904512,
			"target":34962
		},
		{
			"buffer":0,
			"byteLength":380928,
			"byteOffset":4158464,
			"target":34962
		},
		{
			"buffer":0,
			"byteLength":380928,
			"byteOffset":4539392,
			"target":34962
		},
		{
			"buffer":0,
			"byteLength":253952,
			"byteOffset":4920320,
			"target":34962
		},
		{
			"buffer":0,
			"byteLength":380928,
			"byteOffset":5174272,
			"target":34962
		},
		{
			"buffer":0,
			"byteLength":380928,
			"byteOffset":5555200,
			"target":34962
		},
		{
			"buffer":0,
			"byteLength":253952,
			"byteOffset":5936128,
			"target":34962
		},
		{
			"buffer":0,
			"byteLength":380928,
			"byteOffset":6190080,
			"target":34962
		},
		{
			"buffer":0,
			"byteLength":380928,
			"byteOffset":6571008,
			"target":34962
		},
		{
			"buffer":0,
			"byteLength":253952,
			"byteOffset":6951936,
			"target":34962
		},
		{
			"buffer":0,
			"byteLength":380928,
			"byteOffset":7205888,
			"target":34962
		},
		{
			"buffer":0,
			"byteLength":380928,
			"byteOffset":7586816,
			"target":34962
		},
		{
			"buffer":0,
			"byteLength":253952,
			"byteOffset":7967744,
			"target":34962
		},
		{
			"buffer":0,
			"byteLength":380928,
			"byteOffset":8221696,
			"target":34962
		},
		{
			"buffer":0,
			"byteLength":380928,
			"byteOffset":8602624,
			"target":34962
		},
		{
			"buffer":0,
			"byteLength":253952,
			"byteOffset":8983552,
			"target":34962
		},
		{
			"buffer":0,
			"byteLength":380928,
			"byteOffset":9237504,
			"target":34962
		},
		{
			"buffer":0,
			"byteLength":380928,
			"byteOffset":9618432,
			"target":34962
		},
		{
			"buffer":0,
			"byteLength":253952,
			"byteOffset":9999360,
			"target":34962
		},
		{
			"buffer":0,
			"byteLength":380928,
			"byteOffset":10253312,
			"target":34962
		},
		{
			"buffer":0,
			"byteLength":380928,
			"byteOffset":10634240,
			"target":34962
		},
		{
			"buffer":0,
			"byteLength":253952,
			"byteOffset":11015168,
			"target":34962
		},
		{
			"buffer":0,
			"byteLength":380928,
			"byteOffset":11269120,
			"target":34962
		},
		{
			"buffer":0,
			"byteLength":380928,
			"byteOffset":11650048,
			"target":34962
		},
		{
			"buffer":0,
			"byteLength":253952,
			"byteOffset":12030976,
			"target":34962
		},
		{
			"buffer":0,
			"byteLength":380928,
			"byteOffset":12284928,
			"target":34962
		},
		{
			"buffer":0,
			"byteLength":380928,
			"byteOffset":12665856,
			"target":34962
		},
		{
			"buffer":0,
			"byteLength":253952,
			"byteOffset":13046784,
			"target":34962
		},
		{
			"buffer":0,
			"byteLength":380928,
			"byteOffset":13300736,
			"target":34962
		},
		{
			"buffer":0,
			"byteLength":380928,
			"byteOffset":13681664,
			"target":34962
		},
		{
			"buffer":0,
			"byteLength":253952,
			"byteOffset":14062592,
			"target":34962
		},
		{
			"buffer":0,
			"byteLength":380928,
			"byteOffset":14316544,
			"target":34962
		},
		{
			"buffer":0,
			"byteLength":380928,
			"byteOffset":14697472,
			"target":34962
		},
		{
			"buffer":0,
			"byteLength":253952,
			"byteOffset":15078400,
			"target":34962
		},
		{
			"buffer":0,
			"byteLength":380928,
			"byteOffset":15332352,
			"target":34962
		},
		{
			"buffer":0,
			"byteLength":380928,
			"byteOffset":15713280,
			"target":34962
		},
		{
			"buffer":0,
			"byteLength":253952,
			"byteOffset":16094208,
			"target":34962
		},
		{
			"buffer":0,
			"byteLength":380928,
			"byteOffset":16348160,
			"target":34962
		},
		{
			"buffer":0,
			"byteLength":380928,
			"byteOffset":16729088,
			"target":34962
		},
		{
			"buffer":0,
			"byteLength":253952,
			"byteOffset":17110016,
			"target":34962
		},
		{
			"buffer":0,
			"byteLength":380928,
			"byteOffset":17363968,
			"target":34962
		},
		{
			"buffer":0,
			"byteLength":380928,
			"byteOffset":17744896,
			"target":34962
		},
		{
			"buffer":0,
			"byteLength":253952,
			"byteOffset":18125824,
			"target":34962
		},
		{
			"buffer":0,
			"byteLength":380928,
			"byteOffset":18379776,
			"target":34962
		},
		{
			"buffer":0,
			"byteLength":380928,
			"byteOffset":18760704,
			"target":34962
		},
		{
			"buffer":0,
			"byteLength":253952,
			"byteOffset":19141632,
			"target":34962
		}
	],
	"buffers":[
		{
			"byteLength":19395584,
			"uri":"balls.bin"
		}
	]
}
